# xmcd
#
# Track frame offsets:
#	150
#	4274
#	19570
#	35391
#	51414
#	65905
#	82938
#	100382
#	120170
#	136307
#	149500
#	167762
#	184981
#	196668
#
# Disc length: 2812 seconds
#
# Revision: 0
# Processed by: cddbd v1.5.1PL0 Copyright (c) Steve Scherf et al.
# Submitted via: dBpowerAMP V4.0
#
DISCID=bc0afa0e
DTITLE=Martina McBride - Evolution
DYEAR=1994
DGENRE=Country
TTITLE0=I'm Little But I'm Loud
TTITLE1=Happy Girl
TTITLE2=Be That Way
TTITLE3=A Broken Wing
TTITLE4=Wrong Again
TTITLE5=Keeping My Distance
TTITLE6=Still Holding On (With Clint Black)
TTITLE7=Whatever You Say
TTITLE8=I Won't Close My Eyes
TTITLE9=I Don't Want To See You Again
TTITLE10=Some Say I'm Running
TTITLE11=Here In My Heart
TTITLE12=One Day You Will
TTITLE13=Valentine (With Jim Brickman)
EXTD=
EXTT0=
EXTT1=
EXTT2=
EXTT3=
EXTT4=
EXTT5=
EXTT6=
EXTT7=
EXTT8=
EXTT9=
EXTT10=
EXTT11=
EXTT12=
EXTT13=
PLAYORDER=
